<svg xmlns="http://www.w3.org/2000/svg" xmlns:xlink="http://www.w3.org/1999/xlink" width="505" zoomAndPan="magnify" viewBox="0 0 378.75 320.999992" height="428" preserveAspectRatio="xMidYMid meet" version="1.0"><defs><clipPath id="e79c086c61"><path d="M 20.238281 6.058594 L 372.617188 6.058594 L 372.617188 314.390625 L 20.238281 314.390625 Z M 20.238281 6.058594 " clip-rule="nonzero"/></clipPath><clipPath id="825e478ecb"><path d="M 196.429688 6.082031 C 187.339844 6.09375 178.53125 9.402344 171.648438 15.414062 L 28.832031 139.992188 C 24.867188 143.460938 22.175781 147.976562 21.042969 153.078125 C 20.015625 157.703125 20.359375 162.507812 22.035156 166.964844 C 23.695312 171.394531 26.5625 175.21875 30.328125 178.015625 C 34.507812 181.121094 39.492188 182.757812 44.738281 182.757812 L 60.078125 182.757812 L 60.078125 200.695312 C 66.210938 198.03125 72.542969 195.890625 79.019531 194.289062 L 79.019531 169.222656 C 79.019531 166.234375 76.640625 163.808594 73.703125 163.808594 L 44.738281 163.808594 C 39.800781 163.808594 37.519531 157.558594 41.273438 154.285156 L 184.085938 29.703125 C 187.648438 26.597656 192.070312 25.03125 196.480469 25.03125 C 200.886719 25.03125 205.308594 26.585938 208.871094 29.703125 L 351.699219 154.285156 C 355.449219 157.558594 353.179688 163.808594 348.234375 163.808594 L 319.28125 163.808594 C 316.339844 163.808594 313.960938 166.234375 313.960938 169.222656 L 313.960938 290.003906 C 313.960938 292.988281 311.585938 295.414062 308.644531 295.414062 L 225.980469 295.414062 C 222.410156 302.464844 217.722656 308.859375 212.167969 314.367188 L 308.644531 314.367188 C 322.015625 314.367188 332.902344 303.433594 332.902344 290.003906 L 332.902344 182.757812 L 348.246094 182.757812 C 353.488281 182.757812 358.472656 181.121094 362.65625 178.015625 C 366.417969 175.21875 369.285156 171.394531 370.949219 166.964844 C 371.941406 164.324219 372.464844 161.550781 372.511719 158.777344 L 372.511719 157.917969 C 372.488281 156.292969 372.296875 154.667969 371.941406 153.066406 C 370.816406 147.964844 368.117188 143.433594 364.148438 139.980469 L 221.320312 15.414062 C 214.4375 9.402344 205.644531 6.09375 196.539062 6.082031 Z M 196.429688 6.082031 " clip-rule="nonzero"/></clipPath><clipPath id="478a8f1baa"><path d="M 153.570312 244 L 211.90625 244 L 211.90625 313.203125 L 153.570312 313.203125 Z M 153.570312 244 " clip-rule="nonzero"/></clipPath><clipPath id="c62e51adef"><path d="M 160.894531 313.039062 L 153.953125 313.039062 L 153.953125 294.664062 C 153.953125 266.75 176.558594 244.117188 204.4375 244.117188 L 211.378906 244.117188 L 211.378906 262.507812 C 211.378906 290.421875 188.773438 313.050781 160.894531 313.050781 " clip-rule="nonzero"/></clipPath><clipPath id="6055e3b2f2"><path d="M 5.953125 213.199219 L 167.855469 213.199219 L 167.855469 313 L 5.953125 313 Z M 5.953125 213.199219 " clip-rule="nonzero"/></clipPath><clipPath id="0c783164fb"><path d="M 17.53125 299.132812 L 5.972656 292.453125 L 23.625 261.851562 C 50.425781 215.367188 109.800781 199.453125 156.222656 226.277344 L 167.777344 232.957031 L 150.128906 263.570312 C 123.328125 310.054688 63.953125 325.96875 17.53125 299.144531 " clip-rule="nonzero"/></clipPath><clipPath id="777037f117"><path d="M 221 158.4375 L 279 158.4375 L 279 227.488281 L 221 227.488281 Z M 221 158.4375 " clip-rule="nonzero"/></clipPath><clipPath id="5293701894"><path d="M 228.289062 227.449219 L 221.34375 227.449219 L 221.34375 209.058594 C 221.34375 181.148438 243.953125 158.515625 271.828125 158.515625 L 278.773438 158.515625 L 278.773438 176.894531 C 278.773438 204.804688 256.164062 227.4375 228.289062 227.4375 " clip-rule="nonzero"/></clipPath><clipPath id="e92f156e42"><path d="M 127.382812 127 L 211.90625 127 L 211.90625 227.488281 L 127.382812 227.488281 Z M 127.382812 127 " clip-rule="nonzero"/></clipPath><clipPath id="410719bdf2"><path d="M 201.292969 227.449219 L 211.367188 227.449219 L 211.367188 200.742188 C 211.367188 160.1875 178.53125 127.316406 138.023438 127.316406 L 127.949219 127.316406 L 127.949219 154.023438 C 127.949219 194.578125 160.785156 227.449219 201.292969 227.449219 " clip-rule="nonzero"/></clipPath></defs><g clip-path="url(#e79c086c61)"><g clip-path="url(#825e478ecb)"><path fill="#2e2d2d" d="M 0 0.105469 L 378.570312 0.105469 L 378.570312 320.34375 L 0 320.34375 Z M 0 0.105469 " fill-opacity="1" fill-rule="nonzero"/></g></g><g clip-path="url(#478a8f1baa)"><g clip-path="url(#c62e51adef)"><path fill="#3eb83c" d="M 0 0.105469 L 378.570312 0.105469 L 378.570312 320.34375 L 0 320.34375 Z M 0 0.105469 " fill-opacity="1" fill-rule="nonzero"/></g></g><g clip-path="url(#6055e3b2f2)"><g clip-path="url(#0c783164fb)"><path fill="#299640" d="M 0 0.105469 L 378.570312 0.105469 L 378.570312 320.34375 L 0 320.34375 Z M 0 0.105469 " fill-opacity="1" fill-rule="nonzero"/></g></g><g clip-path="url(#777037f117)"><g clip-path="url(#5293701894)"><path fill="#7ecb29" d="M 0 0.105469 L 378.570312 0.105469 L 378.570312 320.34375 L 0 320.34375 Z M 0 0.105469 " fill-opacity="1" fill-rule="nonzero"/></g></g><g clip-path="url(#e92f156e42)"><g clip-path="url(#410719bdf2)"><path fill="#3eb83c" d="M 0 0.105469 L 378.570312 0.105469 L 378.570312 320.34375 L 0 320.34375 Z M 0 0.105469 " fill-opacity="1" fill-rule="nonzero"/></g></g></svg>