<svg xmlns="http://www.w3.org/2000/svg" xmlns:xlink="http://www.w3.org/1999/xlink" width="500" zoomAndPan="magnify" viewBox="0 0 375 374.999991" height="500" preserveAspectRatio="xMidYMid meet" version="1.0"><defs><g/><clipPath id="ee1378deea"><path d="M 41 15.117188 L 335.847656 15.117188 L 335.847656 273.15625 L 41 273.15625 Z M 41 15.117188 " clip-rule="nonzero"/></clipPath><clipPath id="de0660539a"><path d="M 188.398438 15.132812 C 180.789062 15.144531 173.417969 17.914062 167.660156 22.945312 L 48.136719 127.203125 C 44.816406 130.105469 42.566406 133.882812 41.617188 138.152344 C 40.757812 142.023438 41.046875 146.042969 42.449219 149.773438 C 43.839844 153.484375 46.238281 156.683594 49.386719 159.023438 C 52.886719 161.625 57.058594 162.992188 61.449219 162.992188 L 74.289062 162.992188 L 74.289062 178.003906 C 79.417969 175.773438 84.71875 173.984375 90.136719 172.644531 L 90.136719 151.664062 C 90.136719 149.164062 88.148438 147.132812 85.6875 147.132812 L 61.449219 147.132812 C 57.316406 147.132812 55.410156 141.902344 58.546875 139.164062 L 178.066406 34.902344 C 181.046875 32.304688 184.75 30.992188 188.4375 30.992188 C 192.128906 30.992188 195.828125 32.292969 198.808594 34.902344 L 318.339844 139.164062 C 321.476562 141.902344 319.578125 147.132812 315.4375 147.132812 L 291.207031 147.132812 C 288.75 147.132812 286.757812 149.164062 286.757812 151.664062 L 286.757812 252.742188 C 286.757812 255.242188 284.769531 257.273438 282.308594 257.273438 L 213.128906 257.273438 C 210.136719 263.175781 206.21875 268.523438 201.566406 273.132812 L 282.308594 273.132812 C 293.5 273.132812 302.609375 263.984375 302.609375 252.742188 L 302.609375 162.992188 L 315.449219 162.992188 C 319.839844 162.992188 324.007812 161.625 327.507812 159.023438 C 330.660156 156.683594 333.058594 153.484375 334.449219 149.773438 C 335.277344 147.5625 335.71875 145.242188 335.757812 142.925781 L 335.757812 142.203125 C 335.738281 140.84375 335.578125 139.484375 335.277344 138.144531 C 334.339844 133.875 332.078125 130.085938 328.757812 127.195312 L 209.226562 22.945312 C 203.46875 17.914062 196.109375 15.144531 188.488281 15.132812 Z M 188.398438 15.132812 " clip-rule="nonzero"/></clipPath><clipPath id="0f762b9123"><path d="M 152.53125 214 L 201 214 L 201 272.160156 L 152.53125 272.160156 Z M 152.53125 214 " clip-rule="nonzero"/></clipPath><clipPath id="e36165b691"><path d="M 158.660156 272.023438 L 152.847656 272.023438 L 152.847656 256.644531 C 152.847656 233.285156 171.769531 214.34375 195.097656 214.34375 L 200.910156 214.34375 L 200.910156 229.734375 C 200.910156 253.09375 181.988281 272.035156 158.660156 272.035156 " clip-rule="nonzero"/></clipPath><clipPath id="6a6f752a8e"><path d="M 29 188.46875 L 164.484375 188.46875 L 164.484375 272 L 29 272 Z M 29 188.46875 " clip-rule="nonzero"/></clipPath><clipPath id="e0729d6276"><path d="M 38.679688 260.382812 L 29.007812 254.792969 L 43.777344 229.183594 C 66.207031 190.285156 115.898438 176.964844 154.75 199.414062 L 164.417969 205.003906 L 149.648438 230.625 C 127.21875 269.523438 77.527344 282.84375 38.679688 260.394531 " clip-rule="nonzero"/></clipPath><clipPath id="72ed440d37"><path d="M 209 142.640625 L 258 142.640625 L 258 200.425781 L 209 200.425781 Z M 209 142.640625 " clip-rule="nonzero"/></clipPath><clipPath id="7927cd41b7"><path d="M 215.058594 200.394531 L 209.25 200.394531 L 209.25 185.003906 C 209.25 161.644531 228.167969 142.703125 251.5 142.703125 L 257.308594 142.703125 L 257.308594 158.085938 C 257.308594 181.445312 238.386719 200.382812 215.058594 200.382812 " clip-rule="nonzero"/></clipPath><clipPath id="c585a423c3"><path d="M 131 116 L 201 116 L 201 200.425781 L 131 200.425781 Z M 131 116 " clip-rule="nonzero"/></clipPath><clipPath id="08eec75d63"><path d="M 192.46875 200.394531 L 200.898438 200.394531 L 200.898438 178.042969 C 200.898438 144.105469 173.417969 116.59375 139.519531 116.59375 L 131.089844 116.59375 L 131.089844 138.945312 C 131.089844 172.882812 158.566406 200.394531 192.46875 200.394531 " clip-rule="nonzero"/></clipPath></defs><g clip-path="url(#ee1378deea)"><g clip-path="url(#de0660539a)"><path fill="#2e2d2d" d="M 24.007812 10.132812 L 340.828125 10.132812 L 340.828125 278.136719 L 24.007812 278.136719 Z M 24.007812 10.132812 " fill-opacity="1" fill-rule="nonzero"/></g></g><g clip-path="url(#0f762b9123)"><g clip-path="url(#e36165b691)"><path fill="#3eb83c" d="M 24.007812 10.132812 L 340.828125 10.132812 L 340.828125 278.136719 L 24.007812 278.136719 Z M 24.007812 10.132812 " fill-opacity="1" fill-rule="nonzero"/></g></g><g clip-path="url(#6a6f752a8e)"><g clip-path="url(#e0729d6276)"><path fill="#299640" d="M 24.007812 10.132812 L 340.828125 10.132812 L 340.828125 278.136719 L 24.007812 278.136719 Z M 24.007812 10.132812 " fill-opacity="1" fill-rule="nonzero"/></g></g><g clip-path="url(#72ed440d37)"><g clip-path="url(#7927cd41b7)"><path fill="#7ecb29" d="M 24.007812 10.132812 L 340.828125 10.132812 L 340.828125 278.136719 L 24.007812 278.136719 Z M 24.007812 10.132812 " fill-opacity="1" fill-rule="nonzero"/></g></g><g clip-path="url(#c585a423c3)"><g clip-path="url(#08eec75d63)"><path fill="#3eb83c" d="M 24.007812 10.132812 L 340.828125 10.132812 L 340.828125 278.136719 L 24.007812 278.136719 Z M 24.007812 10.132812 " fill-opacity="1" fill-rule="nonzero"/></g></g><g fill="#299640" fill-opacity="1"><g transform="translate(115.434746, 357.211765)"><g><path d="M 25.171875 -34.0625 L 25.171875 -27.40625 L 11.296875 -27.40625 L 11.296875 -20.234375 L 21.6875 -20.234375 L 21.6875 -13.78125 L 11.296875 -13.78125 L 11.296875 0 L 3.015625 0 L 3.015625 -34.0625 Z M 25.171875 -34.0625 "/></g></g></g><g fill="#299640" fill-opacity="1"><g transform="translate(141.972792, 357.211765)"><g><path d="M 1.359375 -13.578125 C 1.359375 -16.359375 1.882812 -18.800781 2.9375 -20.90625 C 3.988281 -23.007812 5.421875 -24.625 7.234375 -25.75 C 9.046875 -26.882812 11.066406 -27.453125 13.296875 -27.453125 C 15.203125 -27.453125 16.875 -27.0625 18.3125 -26.28125 C 19.75 -25.507812 20.859375 -24.492188 21.640625 -23.234375 L 21.640625 -27.078125 L 29.9375 -27.078125 L 29.9375 0 L 21.640625 0 L 21.640625 -3.828125 C 20.828125 -2.566406 19.703125 -1.546875 18.265625 -0.765625 C 16.828125 0.00390625 15.15625 0.390625 13.25 0.390625 C 11.050781 0.390625 9.046875 -0.179688 7.234375 -1.328125 C 5.421875 -2.484375 3.988281 -4.117188 2.9375 -6.234375 C 1.882812 -8.347656 1.359375 -10.796875 1.359375 -13.578125 Z M 21.640625 -13.53125 C 21.640625 -15.601562 21.0625 -17.238281 19.90625 -18.4375 C 18.757812 -19.632812 17.363281 -20.234375 15.71875 -20.234375 C 14.070312 -20.234375 12.671875 -19.640625 11.515625 -18.453125 C 10.367188 -17.273438 9.796875 -15.648438 9.796875 -13.578125 C 9.796875 -11.515625 10.367188 -9.875 11.515625 -8.65625 C 12.671875 -7.445312 14.070312 -6.84375 15.71875 -6.84375 C 17.363281 -6.84375 18.757812 -7.441406 19.90625 -8.640625 C 21.0625 -9.835938 21.640625 -11.46875 21.640625 -13.53125 Z M 21.640625 -13.53125 "/></g></g></g><g fill="#7ecb29" fill-opacity="1"><g transform="translate(174.919117, 357.211765)"><g><path d="M 13.296875 -27.453125 C 15.203125 -27.453125 16.875 -27.0625 18.3125 -26.28125 C 19.75 -25.507812 20.859375 -24.492188 21.640625 -23.234375 L 21.640625 -27.078125 L 29.9375 -27.078125 L 29.9375 -0.046875 C 29.9375 2.441406 29.441406 4.695312 28.453125 6.71875 C 27.460938 8.738281 25.957031 10.347656 23.9375 11.546875 C 21.914062 12.742188 19.398438 13.34375 16.390625 13.34375 C 12.378906 13.34375 9.128906 12.394531 6.640625 10.5 C 4.148438 8.613281 2.726562 6.050781 2.375 2.8125 L 10.578125 2.8125 C 10.835938 3.84375 11.453125 4.65625 12.421875 5.25 C 13.390625 5.851562 14.585938 6.15625 16.015625 6.15625 C 17.722656 6.15625 19.085938 5.660156 20.109375 4.671875 C 21.128906 3.691406 21.640625 2.117188 21.640625 -0.046875 L 21.640625 -3.875 C 20.828125 -2.613281 19.707031 -1.585938 18.28125 -0.796875 C 16.863281 -0.00390625 15.203125 0.390625 13.296875 0.390625 C 11.066406 0.390625 9.046875 -0.179688 7.234375 -1.328125 C 5.421875 -2.484375 3.988281 -4.117188 2.9375 -6.234375 C 1.882812 -8.347656 1.359375 -10.796875 1.359375 -13.578125 C 1.359375 -16.359375 1.882812 -18.800781 2.9375 -20.90625 C 3.988281 -23.007812 5.421875 -24.625 7.234375 -25.75 C 9.046875 -26.882812 11.066406 -27.453125 13.296875 -27.453125 Z M 21.640625 -13.53125 C 21.640625 -15.601562 21.0625 -17.238281 19.90625 -18.4375 C 18.757812 -19.632812 17.363281 -20.234375 15.71875 -20.234375 C 14.070312 -20.234375 12.671875 -19.640625 11.515625 -18.453125 C 10.367188 -17.273438 9.796875 -15.648438 9.796875 -13.578125 C 9.796875 -11.515625 10.367188 -9.875 11.515625 -8.65625 C 12.671875 -7.445312 14.070312 -6.84375 15.71875 -6.84375 C 17.363281 -6.84375 18.757812 -7.441406 19.90625 -8.640625 C 21.0625 -9.835938 21.640625 -11.46875 21.640625 -13.53125 Z M 21.640625 -13.53125 "/></g></g></g><g fill="#7ecb29" fill-opacity="1"><g transform="translate(207.861219, 357.211765)"><g><path d="M 11.296875 -22.5625 C 12.273438 -24.050781 13.488281 -25.222656 14.9375 -26.078125 C 16.394531 -26.929688 18.015625 -27.359375 19.796875 -27.359375 L 19.796875 -18.578125 L 17.515625 -18.578125 C 15.441406 -18.578125 13.882812 -18.128906 12.84375 -17.234375 C 11.8125 -16.347656 11.296875 -14.789062 11.296875 -12.5625 L 11.296875 0 L 3.015625 0 L 3.015625 -27.078125 L 11.296875 -27.078125 Z M 11.296875 -22.5625 "/></g></g></g><g fill="#7ecb29" fill-opacity="1"><g transform="translate(228.625905, 357.211765)"><g><path d="M 15.328125 0.390625 C 12.679688 0.390625 10.296875 -0.175781 8.171875 -1.3125 C 6.054688 -2.445312 4.390625 -4.0625 3.171875 -6.15625 C 1.960938 -8.257812 1.359375 -10.71875 1.359375 -13.53125 C 1.359375 -16.3125 1.972656 -18.757812 3.203125 -20.875 C 4.429688 -23 6.113281 -24.625 8.25 -25.75 C 10.382812 -26.882812 12.773438 -27.453125 15.421875 -27.453125 C 18.078125 -27.453125 20.472656 -26.882812 22.609375 -25.75 C 24.742188 -24.625 26.425781 -23 27.65625 -20.875 C 28.882812 -18.757812 29.5 -16.3125 29.5 -13.53125 C 29.5 -10.75 28.875 -8.300781 27.625 -6.1875 C 26.382812 -4.070312 24.6875 -2.445312 22.53125 -1.3125 C 20.382812 -0.175781 17.984375 0.390625 15.328125 0.390625 Z M 15.328125 -6.796875 C 16.910156 -6.796875 18.257812 -7.375 19.375 -8.53125 C 20.5 -9.695312 21.0625 -11.363281 21.0625 -13.53125 C 21.0625 -15.695312 20.519531 -17.363281 19.4375 -18.53125 C 18.351562 -19.695312 17.015625 -20.28125 15.421875 -20.28125 C 13.804688 -20.28125 12.460938 -19.703125 11.390625 -18.546875 C 10.328125 -17.398438 9.796875 -15.726562 9.796875 -13.53125 C 9.796875 -11.363281 10.320312 -9.695312 11.375 -8.53125 C 12.425781 -7.375 13.742188 -6.796875 15.328125 -6.796875 Z M 15.328125 -6.796875 "/></g></g></g></svg>